<svg xmlns="http://www.w3.org/2000/svg" viewBox="0 0 640 520" role="img" aria-labelledby="t d">
<title id="t">Ilustração institucional IPORTEC</title><desc id="d">Silhueta em movimento com elementos que remetem a próteses, órteses e cuidado personalizado.</desc>
<defs><linearGradient id="g" x1="0" y1="0" x2="1" y2="1"><stop offset="0" stop-color="#e1f1e8"/><stop offset="1" stop-color="#f8f6ef"/></linearGradient><filter id="s" x="-20%" y="-20%" width="140%" height="140%"><feDropShadow dx="0" dy="16" stdDeviation="18" flood-color="#073f2f" flood-opacity=".13"/></filter></defs>
<rect x="34" y="28" width="572" height="456" rx="38" fill="url(#g)"/>
<circle cx="428" cy="120" r="92" fill="#cce6d7" opacity=".7"/><circle cx="166" cy="372" r="122" fill="#fff" opacity=".66"/>
<path d="M151 421c57-74 106-111 157-111 70 0 113 64 189 64 43 0 79-15 105-30" fill="none" stroke="#84bda0" stroke-width="7" stroke-linecap="round" stroke-dasharray="14 16"/>
<g filter="url(#s)"><path d="M326 83c-31 0-56 25-56 56 0 27 20 50 46 55l-12 58-54 72c-9 13-6 31 7 40 13 9 31 6 40-7l50-68 27 56-11 98c-2 16 10 31 26 33 16 2 31-10 33-26l13-109c1-7-1-14-4-20l-39-80 16-65c5-4 9-9 12-15 4-8 5-17 3-26-8-31-36-52-67-52z" fill="#10241c"/>
<circle cx="326" cy="83" r="39" fill="#10241c"/>
<path d="M314 252l-57 77" stroke="#fff" stroke-width="6" stroke-linecap="round" opacity=".75"/>
<path d="M395 333l-12 96" stroke="#08a84f" stroke-width="22" stroke-linecap="round"/><path d="M377 393l43 26" stroke="#08a84f" stroke-width="20" stroke-linecap="round"/><circle cx="384" cy="361" r="9" fill="#fff" opacity=".9"/>
<path d="M384 256c36 9 76 4 108-19" fill="none" stroke="#08a84f" stroke-width="16" stroke-linecap="round"/>
</g>
<g fill="#08783f"><circle cx="136" cy="142" r="10"/><circle cx="165" cy="142" r="10"/><circle cx="194" cy="142" r="10"/><path d="M119 176c15-19 31-28 47-28 18 0 35 10 50 29" fill="none" stroke="#08783f" stroke-width="8" stroke-linecap="round"/></g>
<g fill="#084a35" font-family="Arial, Helvetica, sans-serif"><text x="92" y="230" font-size="17" font-weight="700" letter-spacing="2">MOVIMENTO</text><text x="92" y="255" font-size="17" font-weight="700" letter-spacing="2">AUTONOMIA</text><text x="92" y="280" font-size="17" font-weight="700" letter-spacing="2">CUIDADO</text></g>
<path d="M479 128c34 13 58 42 68 77" fill="none" stroke="#08783f" stroke-width="5" stroke-linecap="round"/><path d="M534 199l17 13 5-21" fill="none" stroke="#08783f" stroke-width="5" stroke-linecap="round" stroke-linejoin="round"/>
</svg>